<?xml version="1.0" standalone="no"?>
<!DOCTYPE svg PUBLIC "-//W3C//DTD SVG 20010904//EN"
 "http://www.w3.org/TR/2001/REC-SVG-20010904/DTD/svg10.dtd">
<svg version="1.0" xmlns="http://www.w3.org/2000/svg"
 width="700.000000pt" height="700.000000pt" viewBox="0 0 700.000000 700.000000"
 preserveAspectRatio="xMidYMid meet">
<metadata>
Created by potrace 1.14, written by Peter Selinger 2001-2017
</metadata>
<g transform="translate(0.000000,700.000000) scale(0.100000,-0.100000)"
fill="#000000" stroke="none">
<path d="M3584 6976 c-51 -23 -51 -24 -63 -87 -17 -88 -58 -251 -83 -326 -19
-62 -20 -63 -56 -64 -186 -2 -441 -13 -557 -24 -94 -8 -180 -16 -205 -20 -14
-2 -47 -6 -75 -10 -48 -6 -62 -8 -132 -20 -84 -13 -103 -17 -173 -31 -477 -96
-920 -298 -1233 -562 -40 -33 -266 -260 -289 -289 -9 -11 -38 -50 -66 -84
-213 -274 -391 -652 -501 -1069 -47 -177 -94 -417 -116 -595 -4 -27 -8 -61
-11 -74 -26 -168 -26 -603 0 -751 3 -14 7 -47 11 -75 7 -55 29 -170 50 -255
143 -585 466 -1141 929 -1594 448 -439 986 -750 1591 -921 66 -19 136 -37 155
-40 19 -3 51 -10 70 -15 33 -9 112 -22 205 -35 22 -3 49 -7 60 -10 130 -26
644 -27 825 -1 19 3 55 8 80 11 60 8 117 17 210 35 152 29 518 140 627 190 24
11 45 20 49 20 18 0 327 158 432 221 102 61 374 248 392 268 3 3 32 28 65 56
103 86 126 107 243 225 445 446 740 969 891 1575 17 66 32 134 35 150 14 85
37 235 42 275 3 25 6 151 8 280 3 223 -9 452 -33 640 -6 47 -14 105 -17 130
-2 25 -16 113 -29 195 -184 1134 -668 1851 -1437 2126 -106 38 -258 80 -348
95 -25 4 -47 8 -50 9 -3 1 -32 5 -65 9 -32 4 -68 10 -78 12 -117 22 -621 22
-817 -1 -19 -2 -71 -7 -115 -10 -44 -3 -97 -8 -119 -11 l-38 -4 6 142 c6 136
14 231 21 253 11 38 -69 77 -165 81 -62 3 -84 -1 -126 -20z m397 -851 c-40
-19 -78 -35 -82 -35 -5 0 -9 13 -9 29 0 33 3 34 110 38 l55 3 -74 -35z m-716
-22 c-4 -10 -12 -30 -17 -45 -5 -16 -13 -28 -16 -28 -4 0 -29 21 -57 45 l-50
45 74 0 c66 0 72 -2 66 -17z m2056 -22 c618 -208 999 -714 1203 -1601 18 -78
53 -273 61 -338 3 -26 8 -58 10 -72 3 -14 7 -47 10 -75 3 -27 8 -66 10 -85 3
-19 7 -71 11 -115 3 -44 8 -96 11 -115 9 -70 11 -487 2 -555 -4 -38 -11 -92
-14 -119 -3 -28 -8 -59 -10 -70 -2 -12 -6 -34 -9 -51 -10 -71 -58 -262 -92
-367 -173 -535 -498 -1013 -948 -1393 -366 -310 -818 -539 -1291 -656 -134
-33 -132 -32 -265 -53 -194 -30 -312 -40 -485 -40 -106 0 -326 11 -364 19 -11
2 -41 6 -68 10 -41 6 -94 15 -233 41 -14 3 -74 18 -135 34 -838 222 -1582 787
-2005 1524 -60 104 -170 327 -170 344 0 5 -9 26 -19 48 -62 128 -145 468 -169
689 -14 131 -6 515 13 614 3 16 12 80 21 151 9 73 66 340 95 448 35 131 106
342 120 356 5 6 9 17 9 25 0 8 31 78 69 155 224 454 522 757 957 974 145 72
237 87 549 87 162 0 270 -6 343 -19 9 -2 40 -7 67 -10 125 -18 445 -98 445
-113 0 -3 -7 -2 -16 1 -51 20 -273 27 -408 13 -296 -31 -605 -164 -836 -362
-80 -69 -212 -210 -278 -297 -66 -89 -192 -287 -192 -304 0 -4 -6 -15 -13 -23
-16 -19 -115 -236 -153 -336 -36 -95 -105 -310 -95 -299 4 5 34 47 66 94 152
222 330 395 557 543 97 62 316 164 459 211 118 39 324 96 399 110 21 4 157 34
235 52 11 3 31 7 45 10 117 23 294 84 367 125 28 16 74 50 101 74 l49 44 2
-54 c2 -109 24 -237 44 -262 5 -7 7 -13 3 -13 -14 0 48 -104 86 -146 57 -62
139 -97 327 -138 88 -20 180 -44 204 -53 61 -24 140 -76 179 -118 95 -104 256
-400 398 -735 186 -436 287 -618 414 -745 55 -54 152 -122 161 -113 2 2 -14
52 -36 111 -36 99 -77 243 -95 342 -5 22 -8 186 -9 365 0 179 -4 345 -9 370
-52 294 -200 591 -503 1010 l-47 64 34 -20 c94 -57 170 -89 267 -116 69 -19
109 -21 358 -24 345 -4 400 -8 560 -49 50 -12 132 -38 183 -58 l92 -34 -27 46
c-238 407 -610 672 -1038 737 -126 19 -357 9 -480 -21 l-30 -8 40 37 c112 101
318 227 454 276 198 72 287 76 452 21z"/>
</g>
</svg>
